<svg width="414" height="283" viewBox="0 0 414 283" fill="none" xmlns="http://www.w3.org/2000/svg">
<g clip-path="url(#clip0_1_203)">
<path d="M219.65 146.578C217.035 146.578 214.739 145.553 213.148 143.751C211.558 141.878 210.922 139.369 211.346 136.719L225.41 47.8119C226.294 42.2287 231.523 37.7056 237.107 37.7056H372.163C374.778 37.7056 377.075 38.7304 378.665 40.5326C380.255 42.4054 380.891 44.9143 380.467 47.5645L366.403 136.507C365.52 142.09 360.29 146.613 354.707 146.613L219.65 146.578Z" fill="white"/>
<path d="M372.163 38.4477C374.566 38.4477 376.686 39.3665 378.1 41.0273C379.549 42.7235 380.149 45.0203 379.761 47.4939L365.697 136.365C364.884 141.595 359.937 145.871 354.707 145.871H219.651C217.248 145.871 215.128 144.952 213.714 143.291C212.265 141.595 211.665 139.298 212.053 136.825L226.117 47.9533C226.93 42.7235 231.877 38.4477 237.107 38.4477H372.163ZM372.163 37.0343H237.107C231.206 37.0343 225.658 41.84 224.704 47.7413L210.64 136.613C209.721 142.514 213.749 147.32 219.651 147.32H354.707C360.608 147.32 366.156 142.514 367.11 136.613L381.174 47.7413C382.128 41.8047 378.1 37.0343 372.163 37.0343Z" fill="black"/>
<path d="M365.591 59.0136C365.378 59.0136 365.202 58.9429 365.06 58.7663L357.781 49.9321C357.534 49.6141 357.569 49.1901 357.887 48.9427C358.205 48.6953 358.629 48.7307 358.877 49.0487L366.156 57.8828C366.403 58.2009 366.368 58.6249 366.05 58.8723C365.909 58.9783 365.732 59.0136 365.591 59.0136Z" fill="black"/>
<path d="M356.757 59.0136C356.545 59.0136 356.368 58.9429 356.227 58.7662C355.979 58.4835 356.015 58.0242 356.297 57.7768L366.686 48.9427C366.969 48.6953 367.428 48.7306 367.676 49.0133C367.923 49.296 367.888 49.7554 367.605 50.0028L357.216 58.8369C357.075 58.9429 356.933 59.0136 356.757 59.0136Z" fill="black"/>
<path d="M247.743 171.313L241.701 282.094H247.743L256.896 217.039H316.544L352.658 282.094H359.16L309.9 171.313H247.743Z" fill="#96B7F6"/>
<path d="M319.547 172.02H236.365C235.976 172.02 235.658 171.702 235.658 171.313C235.658 170.925 235.976 170.607 236.365 170.607H319.547C319.936 170.607 320.254 170.925 320.254 171.313C320.254 171.702 319.936 172.02 319.547 172.02Z" fill="black"/>
<path d="M256.896 217.746H245.234C244.846 217.746 244.528 217.428 244.528 217.039C244.528 216.65 244.846 216.332 245.234 216.332H256.896C257.284 216.332 257.602 216.65 257.602 217.039C257.602 217.428 257.284 217.746 256.896 217.746Z" fill="black"/>
<path d="M330.219 217.746H316.685C316.296 217.746 315.978 217.428 315.978 217.039C315.978 216.65 316.296 216.332 316.685 216.332H330.219C330.607 216.332 330.925 216.65 330.925 217.039C330.925 217.428 330.607 217.746 330.219 217.746Z" fill="black"/>
<path d="M281.242 198.558C283.526 198.558 285.377 196.707 285.377 194.423C285.377 192.14 283.526 190.289 281.242 190.289C278.959 190.289 277.108 192.14 277.108 194.423C277.108 196.707 278.959 198.558 281.242 198.558Z" fill="black"/>
<path d="M88.9757 249.725C88.8344 249.655 74.6997 242.163 72.9329 234.46C72.4735 232.481 72.8622 230.608 74.099 228.912C74.1343 228.877 76.1132 227.322 80.8836 227.322C85.3714 227.322 90.9546 228.453 97.1738 231.103L97.0678 231.35L97.0324 231.421C93.2868 238.594 89.1524 249.584 89.0817 249.69L89.0464 249.761L88.9757 249.725Z" fill="black"/>
<path d="M197.636 239.654C197.636 239.619 197.035 234.955 196.964 223.117V223.081L197 220.785C201.205 218.594 206.258 215.802 214.067 216.368C218.626 216.686 220.498 219.866 220.534 219.901C221.382 222.021 221.311 224.142 220.286 226.226C216.152 234.566 197.918 239.654 197.742 239.725L197.671 239.76L197.636 239.654Z" fill="black"/>
<path d="M134.383 264.496C134.101 264.496 133.818 264.319 133.712 264.037C133.606 263.719 133.712 263.365 133.995 263.188L168.624 241.739C173.183 238.948 179.19 240.361 182.017 244.884C182.37 245.485 182.688 246.121 182.936 246.792C183.784 249.231 183.642 251.881 182.512 254.213C181.381 256.581 179.402 258.312 176.929 259.16C176.328 259.372 175.656 259.513 174.914 259.655L134.419 264.461C134.454 264.496 134.419 264.496 134.383 264.496ZM173.748 241.704C172.264 241.704 170.745 242.093 169.402 242.941L137.493 262.694L174.773 258.277C175.444 258.171 176.01 258.029 176.54 257.853C178.625 257.146 180.321 255.626 181.31 253.612C182.264 251.598 182.406 249.372 181.664 247.287C181.452 246.722 181.204 246.156 180.886 245.662C179.261 243.117 176.54 241.704 173.748 241.704Z" fill="black"/>
<path d="M161.133 277.288C160.921 277.288 160.744 277.217 160.603 277.04C155.161 270.892 150.85 270.22 146.292 269.549C142.405 268.984 138.412 268.383 133.853 264.213C133.57 263.966 133.535 263.507 133.818 263.224C134.101 262.941 134.525 262.906 134.807 263.188C139.048 267.04 142.652 267.57 146.504 268.171C151.133 268.842 155.903 269.584 161.663 276.122C161.91 276.404 161.91 276.864 161.592 277.111C161.451 277.217 161.31 277.288 161.133 277.288Z" fill="black"/>
<path d="M187.317 282.164C178.165 262.906 161.274 258.277 151.981 257.252H151.945V257.217C151.168 253.718 150.497 250.22 149.931 246.863V246.828L149.967 246.792C151.839 245.838 195.551 223.081 197 223.081C197.07 223.081 197.106 223.152 197.106 223.187C197.176 234.99 197.777 239.654 197.777 239.69C197.777 239.866 198.625 255.662 210.852 265.521C220.286 273.118 220.569 277.288 220.887 282.129V282.2H187.317V282.164Z" fill="#FC8B8B"/>
<path d="M159.366 282.164C156.363 274.037 153.854 265.627 151.981 257.181L151.946 257.075H152.052C158.377 257.782 167.6 260.079 175.868 266.899L175.904 266.934L175.374 282.164H159.366Z" fill="black"/>
<path d="M74.0991 228.912C74.2051 228.806 84.3467 218.099 132.793 177.815C140.956 171.207 147.847 167.85 153.253 167.85C160.886 167.85 162.9 174.67 162.935 174.741L152.582 231.386C147.069 238.206 143.394 242.976 140.603 246.863L140.567 246.898H140.532C140.532 246.898 140.391 246.898 140.143 246.898C138.094 246.898 127.21 246.58 114.524 240.078C103.216 234.283 97.6686 231.633 97.0679 231.35C78.6222 225.449 74.0991 228.912 74.0991 228.912Z" fill="#9A98F4"/>
<path d="M64.4874 129.616L64.5228 129.51C65.2295 127.178 66.0422 124.669 66.8903 121.877C67.491 120.005 68.0918 118.026 68.7632 115.906V115.87L115.266 115.694L117.21 129.651H64.4874V129.616Z" fill="#FC8B8B"/>
<path d="M149.931 246.828C144.136 212.48 149.013 185.978 149.331 184.282H91.5554C79.8943 184.282 70.8128 180.996 65.3003 174.741C60.0351 168.769 58.0209 160.43 59.3284 149.935C59.9645 144.846 61.5899 139.086 64.5229 129.545V129.51H117.174L117.528 132.125C118.835 132.231 141.698 134.316 159.72 137.461C168.872 139.051 176.222 140.924 182.335 144.776C188.554 148.698 193.077 154.458 197.035 163.398C202.336 175.342 211.311 197.003 220.499 220.007C218.838 218.629 210.781 216.085 196.894 223.293C192.265 225.732 189.12 227.993 185.798 230.361C181.77 233.223 177.6 236.191 170.427 239.76C163.96 243.047 157.069 245.485 149.967 246.934H149.896L149.931 246.828Z" fill="#9A98F4"/>
<path d="M76.2193 45.8331C84.7868 45.8331 91.732 38.8878 91.732 30.3203C91.732 21.7529 84.7868 14.8076 76.2193 14.8076C67.6518 14.8076 60.7065 21.7529 60.7065 30.3203C60.7065 38.8878 67.6518 45.8331 76.2193 45.8331Z" fill="black"/>
<path d="M48.1973 33.5713C56.7648 33.5713 63.7101 26.626 63.7101 18.0585C63.7101 9.49108 56.7648 2.54578 48.1973 2.54578C39.6298 2.54578 32.6845 9.49108 32.6845 18.0585C32.6845 26.626 39.6298 33.5713 48.1973 33.5713Z" fill="black"/>
<path d="M88.5515 67.3177C84.1345 67.3177 80.5301 63.7134 80.5301 59.2963C80.5301 54.8792 84.1345 51.2749 88.5515 51.2749C92.9686 51.2749 96.5729 54.8792 96.5729 59.2963C96.5729 63.7134 92.9686 67.3177 88.5515 67.3177Z" fill="white"/>
<path d="M88.5517 51.9817C92.5801 51.9817 95.8664 55.268 95.8664 59.2963C95.8664 63.3247 92.5801 66.611 88.5517 66.611C84.5233 66.611 81.237 63.3247 81.237 59.2963C81.237 55.268 84.488 51.9817 88.5517 51.9817ZM88.5517 50.5682C83.7106 50.5682 79.8236 54.4906 79.8236 59.2963C79.8236 64.1021 83.7459 68.0245 88.5517 68.0245C93.3575 68.0245 97.2799 64.1021 97.2799 59.2963C97.2799 54.4906 93.3575 50.5682 88.5517 50.5682Z" fill="black"/>
<path d="M87.4562 61.3459C87.2442 61.3459 86.9969 61.2399 86.8555 61.0279C86.6435 60.7098 86.7142 60.2505 87.0322 60.0384L92.1913 56.5754C92.5094 56.3634 92.9688 56.4341 93.1808 56.7521C93.3928 57.0702 93.3221 57.5295 93.0041 57.7416L87.8449 61.2045C87.7389 61.3106 87.5976 61.3459 87.4562 61.3459Z" fill="black"/>
<path d="M104.312 67.1411C100.601 67.1411 97.0323 64.8089 94.064 60.3918C83.6044 44.9497 85.1592 37.9884 91.0251 31.7692C91.0958 31.6985 98.0217 24.7372 106.679 24.7372C108.269 24.7372 109.86 24.9845 111.379 25.4439C117.422 27.3168 120.425 37.8471 118.376 49.8968C116.609 60.0384 110.814 67.1411 104.312 67.1411Z" fill="white"/>
<path d="M106.679 25.4439C108.199 25.4439 109.718 25.6559 111.167 26.1153C113.782 26.9281 115.902 29.649 117.174 33.7833C118.517 38.2358 118.694 43.8896 117.669 49.7555C116.821 54.738 114.983 58.9783 112.404 62.0173C110.036 64.8442 107.139 66.399 104.312 66.399C100.849 66.399 97.4918 64.1728 94.6296 59.9678C84.4526 44.9497 85.9014 38.2004 91.5199 32.2639C91.7673 32.0165 98.4459 25.4439 106.679 25.4439ZM106.679 24.0305C97.5978 24.0305 90.4952 31.3098 90.4952 31.3098C83.9579 38.2358 83.3925 45.9038 93.4635 60.7805C96.7851 65.657 100.601 67.8125 104.312 67.8125C110.99 67.8125 117.21 60.7805 119.047 50.0029C121.238 37.3524 117.916 26.716 111.591 24.7725C109.895 24.2425 108.269 24.0305 106.679 24.0305Z" fill="black"/>
<path d="M90.4952 31.3098C84.8061 37.317 83.6399 43.925 90.0359 55.268C100.884 48.2007 97.2445 31.9812 97.2445 31.9812C108.588 37.6704 118.977 35.0908 118.977 35.0908C117.775 29.7197 115.16 25.868 111.591 24.7725C100.319 21.2742 90.4952 31.3098 90.4952 31.3098Z" fill="black"/>
<path d="M111.202 50.1442C110.99 50.1442 110.778 50.0382 110.637 49.8615C110.39 49.5435 110.425 49.1194 110.743 48.8721C111.167 48.5187 111.485 48.0947 111.662 47.6353C111.909 46.8579 111.626 45.1617 110.708 41.8047C110.602 41.416 110.814 41.0273 111.202 40.9213C111.591 40.8153 111.98 41.0273 112.086 41.416C113.146 45.1971 113.393 46.9285 113.04 48.0947C112.793 48.8367 112.298 49.4728 111.662 49.9675C111.52 50.1088 111.344 50.1442 111.202 50.1442Z" fill="black"/>
<path d="M105.937 45.4444C105.584 45.4444 105.301 45.1971 105.231 44.8437L105.089 43.9249C105.019 43.5362 105.301 43.1829 105.69 43.1122C106.079 43.0415 106.432 43.3242 106.503 43.7129L106.644 44.6317C106.715 45.0204 106.432 45.3737 106.043 45.4444C106.008 45.4444 105.973 45.4444 105.937 45.4444Z" fill="black"/>
<path d="M115.408 41.6987C115.054 41.6987 114.771 41.4514 114.701 41.098L114.559 40.2146C114.489 39.8259 114.771 39.4725 115.16 39.4019C115.549 39.3312 115.902 39.6139 115.973 40.0026L116.114 40.886C116.185 41.2747 115.902 41.6281 115.514 41.6987C115.478 41.6987 115.443 41.6987 115.408 41.6987Z" fill="black"/>
<path d="M108.552 55.1266C107.845 55.1266 107.174 54.9146 106.573 54.5259C105.761 53.9958 105.195 53.1478 105.019 52.1937C104.948 51.805 105.195 51.4516 105.584 51.3456C105.973 51.2749 106.326 51.5223 106.432 51.911C106.538 52.5117 106.891 53.0064 107.386 53.3244C107.881 53.6425 108.446 53.7838 109.012 53.6425C109.118 53.6071 109.259 53.5718 109.436 53.5011C109.789 53.3598 110.213 53.5365 110.354 53.8898C110.496 54.2432 110.319 54.6672 109.966 54.8086C109.789 54.8792 109.542 54.9853 109.294 55.0206C109.012 55.0913 108.764 55.1266 108.552 55.1266Z" fill="black"/>
<path d="M132.016 142.161C124.03 142.161 118.552 139.616 115.337 137.496C111.874 135.199 110.248 132.832 110.248 132.796L110.213 132.761C110.142 132.655 102.262 122.69 96.2904 107.142C96.2904 107.142 96.2904 107.107 96.255 107.107L90.4598 94.7389L119.719 80.3216L129.047 93.7848C130.532 96.9298 132.44 101.17 132.475 101.206C132.581 101.453 132.793 101.594 133.04 101.63C133.076 101.63 133.076 101.63 133.111 101.63C133.358 101.63 133.57 101.524 133.712 101.312C133.924 100.993 155.939 68.7665 166.469 58.5896C168.73 56.434 170.25 55.9747 171.133 55.9747C172.582 55.9747 173.253 57.2468 173.572 58.3069C173.642 58.5189 173.784 58.6603 173.96 58.7663C174.066 58.8016 174.137 58.8369 174.243 58.8369C174.349 58.8369 174.455 58.8016 174.561 58.7663C174.596 58.7309 179.367 56.3634 183.713 55.3739C184.208 55.2679 184.632 55.1973 185.056 55.1973C187.706 55.1973 188.342 57.4942 188.378 57.6002C188.448 57.8829 188.66 58.0595 188.943 58.1302C190.109 58.3422 190.886 58.8016 191.31 59.5083C191.947 60.6038 191.522 62.0172 191.522 62.0526C191.452 62.2646 191.487 62.4766 191.593 62.6533C191.699 62.83 191.911 62.936 192.088 62.9713C193.148 63.1127 193.89 63.5014 194.279 64.1728C194.738 64.9148 194.703 65.9749 194.279 67.2117C194.137 67.5651 194.314 67.9184 194.632 68.0951C194.632 68.0951 195.904 68.7665 196.01 69.968C196.116 71.1341 195.127 72.5829 193.113 74.1377C192.512 74.6324 191.876 75.0918 191.31 75.5158C185.904 79.6149 181.24 83.1839 174.632 95.7637C173.925 97.1418 173.183 98.5553 172.441 99.9687C167.494 109.474 161.91 120.252 155.302 128.415C147.846 137.673 140.214 142.161 132.016 142.161Z" fill="white"/>
<path d="M185.056 55.904C187.07 55.904 187.6 57.4942 187.706 57.7768C187.812 58.3422 188.271 58.7309 188.837 58.8369C189.791 59.0136 190.392 59.367 190.71 59.8617C191.134 60.5331 190.957 61.5225 190.851 61.8406C190.71 62.2293 190.78 62.6886 190.992 63.042C191.204 63.3954 191.593 63.6427 192.017 63.6781C192.582 63.7487 193.36 63.9607 193.713 64.5261C194.031 65.0915 194.031 65.9396 193.643 66.929C193.395 67.6004 193.678 68.3425 194.314 68.6959C194.314 68.6959 195.268 69.1906 195.339 70.0033C195.409 70.9221 194.455 72.1942 192.724 73.5723C192.123 74.067 191.487 74.5264 190.922 74.9504C185.445 79.1201 180.709 82.7245 174.066 95.4103C173.359 96.7884 172.617 98.2019 171.875 99.6154C166.963 109.086 161.38 119.828 154.808 127.955C147.458 137.037 140.037 141.454 132.051 141.454C124.277 141.454 118.941 139.016 115.831 136.931C112.439 134.705 110.884 132.408 110.849 132.408C110.814 132.372 110.814 132.337 110.778 132.302C110.708 132.196 102.863 122.301 96.9617 106.895C96.9617 106.859 96.9264 106.824 96.9264 106.789L91.4138 95.057L119.506 81.205L128.447 94.1382C129.931 97.2832 131.804 101.453 131.839 101.524C132.051 101.983 132.51 102.301 133.005 102.336C133.04 102.336 133.076 102.336 133.146 102.336C133.606 102.336 134.065 102.124 134.312 101.736C134.524 101.418 156.504 69.2612 166.999 59.1196C169.19 56.9994 170.532 56.6814 171.169 56.6814C171.487 56.6814 172.405 56.6814 172.935 58.4836C173.041 58.8723 173.359 59.2256 173.713 59.367C173.889 59.4377 174.066 59.473 174.278 59.473C174.49 59.473 174.702 59.4377 174.914 59.3317C174.95 59.2963 179.649 56.9641 183.925 56.01C184.314 55.9393 184.702 55.904 185.056 55.904ZM185.056 54.4905C184.596 54.4905 184.102 54.5612 183.536 54.6672C179.049 55.692 174.207 58.1302 174.207 58.1302C173.677 56.328 172.582 55.3033 171.063 55.3033C169.684 55.3033 167.918 56.1867 165.903 58.1302C155.196 68.4838 133.04 100.958 133.04 100.958C133.04 100.958 131.097 96.6471 129.577 93.4668L119.86 79.4382L89.435 94.4562L95.5129 107.425C101.591 123.256 109.542 133.22 109.542 133.22C109.542 133.22 116.043 142.903 131.91 142.903C152.228 142.903 164.631 116.188 175.162 96.1171C182.406 82.3004 187.247 79.5442 193.466 74.7031C199.685 69.862 194.844 67.4591 194.844 67.4591C195.869 64.7028 194.844 62.618 192.088 62.2999C192.088 62.2999 193.431 58.2716 188.978 57.4588C189.084 57.4235 188.342 54.4905 185.056 54.4905Z" fill="black"/>
<path d="M154.207 73.6784C154.031 73.6784 153.854 73.6077 153.713 73.4663C153.43 73.1837 153.43 72.7596 153.677 72.4769C161.981 63.8194 173.466 58.5543 173.572 58.519C173.925 58.3423 174.349 58.519 174.49 58.8723C174.667 59.2257 174.49 59.6497 174.137 59.7911C174.031 59.8264 162.794 64.9856 154.667 73.4663C154.596 73.6077 154.384 73.6784 154.207 73.6784Z" fill="black"/>
<path d="M67.9506 118.909C67.8446 118.874 60.6359 116.718 59.6112 108.838C58.7984 102.548 60.2472 96.9651 70.4242 83.8199C80.8131 70.4627 89.6119 60.2151 100.531 60.2151C100.92 60.2151 101.308 60.2151 101.697 60.2504C109.683 60.8158 115.973 65.5862 120.425 74.4911C123.959 81.523 127.069 87.919 129.754 93.5375L129.79 93.6082L95.6898 107.46C97.174 111.312 98.9055 115.163 100.814 118.838L100.884 118.944L67.9506 118.909Z" fill="#FC8B8B"/>
<path d="M101.061 119.545H67.9504C67.5617 119.545 67.2437 119.227 67.2437 118.839C67.2437 118.45 67.5617 118.132 67.9504 118.132H101.061C101.45 118.132 101.768 118.45 101.768 118.839C101.768 119.227 101.45 119.545 101.061 119.545Z" fill="black"/>
<path d="M107.633 130.252H64.4875C64.0988 130.252 63.7808 129.934 63.7808 129.545C63.7808 129.157 64.0988 128.839 64.4875 128.839H107.633C108.022 128.839 108.34 129.157 108.34 129.545C108.34 129.934 108.022 130.252 107.633 130.252Z" fill="black"/>
<path d="M96.9264 109.545C96.6437 109.545 96.3963 109.404 96.2903 109.121C94.3115 104.527 91.8026 97.7425 90.7425 94.5622C90.6365 94.2089 90.8131 93.7848 91.2018 93.6788C91.5552 93.5728 91.9792 93.7495 92.0853 94.1382C93.11 97.2832 95.5836 104.032 97.5624 108.556C97.7038 108.909 97.5624 109.333 97.2091 109.474C97.1031 109.51 97.0324 109.545 96.9264 109.545Z" fill="black"/>
<path d="M72.7208 130.252C72.6854 130.252 72.6501 130.252 72.6148 130.252C72.2261 130.182 71.9787 129.828 72.0494 129.439L73.8162 118.732C73.8869 118.344 74.2403 118.096 74.629 118.167C75.0177 118.238 75.265 118.591 75.1943 118.98L73.4275 129.687C73.3568 130.005 73.0741 130.252 72.7208 130.252Z" fill="black"/>
<path d="M83.8166 130.252H83.7812C83.3925 130.217 83.1098 129.899 83.1098 129.51L83.8519 118.803C83.8872 118.414 84.2053 118.132 84.594 118.132C84.9827 118.167 85.2654 118.485 85.2654 118.874L84.5233 129.581C84.488 129.97 84.1699 130.252 83.8166 130.252Z" fill="black"/>
<path d="M95.3009 130.252C94.9122 130.252 94.5941 129.934 94.5941 129.545L94.4881 118.839C94.4881 118.45 94.8062 118.132 95.1949 118.132C95.5836 118.132 95.9016 118.45 95.9016 118.839L96.0076 129.545C96.0076 129.934 95.6896 130.252 95.3009 130.252Z" fill="black"/>
<path d="M167.317 69.862C167.105 69.862 166.893 69.756 166.752 69.5793C166.539 69.2613 166.61 68.8372 166.928 68.5899C174.455 63.2187 182.017 59.155 188.166 57.1055C188.519 56.9995 188.943 57.1761 189.049 57.5648C189.155 57.9535 188.978 58.3422 188.59 58.4483C182.547 60.4271 175.126 64.4555 167.706 69.7206C167.6 69.8266 167.458 69.862 167.317 69.862Z" fill="black"/>
<path d="M171.487 74.6678C171.275 74.6678 171.063 74.5618 170.921 74.3851C170.709 74.0671 170.78 73.643 171.098 73.3957C179.437 67.3531 186.328 63.3954 190.993 61.9113C191.381 61.8053 191.77 61.982 191.876 62.3707C191.982 62.7594 191.805 63.1481 191.417 63.2541C186.893 64.7029 180.18 68.5899 171.946 74.5264C171.769 74.6325 171.628 74.6678 171.487 74.6678Z" fill="black"/>
<path d="M175.197 80.1449C175.02 80.1449 174.808 80.0743 174.702 79.9329C174.419 79.6502 174.455 79.1909 174.738 78.9435C179.119 74.7384 189.014 68.9079 194.031 67.1411C194.385 66.9997 194.809 67.2117 194.95 67.5651C195.091 67.9185 194.879 68.3425 194.526 68.4839C189.65 70.2154 180.003 75.8692 175.727 80.0036C175.55 80.0743 175.374 80.1449 175.197 80.1449Z" fill="black"/>
<path d="M135.938 109.545C135.655 109.545 135.408 109.404 135.302 109.121L132.192 102.23C132.016 101.877 132.192 101.453 132.546 101.312C132.899 101.135 133.323 101.312 133.465 101.665L136.574 108.556C136.751 108.909 136.574 109.333 136.221 109.474C136.15 109.51 136.044 109.545 135.938 109.545Z" fill="black"/>
<path d="M150.144 247.464C149.79 247.464 149.507 247.216 149.437 246.863C143.43 211.42 148.801 184.247 148.836 183.999C148.907 183.611 149.295 183.363 149.684 183.434C150.073 183.504 150.32 183.893 150.25 184.282C150.179 184.565 144.914 211.456 150.85 246.651C150.921 247.04 150.674 247.393 150.285 247.464C150.214 247.464 150.179 247.464 150.144 247.464Z" fill="black"/>
<path d="M161.133 184.883H125.231C124.842 184.883 124.524 184.565 124.524 184.176C124.524 183.787 124.842 183.469 125.231 183.469H161.133C161.522 183.469 161.84 183.787 161.84 184.176C161.84 184.565 161.522 184.883 161.133 184.883Z" fill="black"/>
<path d="M79.6116 282.164V282.094C79.6469 281.988 81.7318 271.245 86.3609 257.181L86.3962 257.111H86.4669C93.9582 258.63 99.188 263.613 102.262 267.5L102.298 267.535L97.0325 282.164H79.6116Z" fill="black"/>
<path d="M108.799 282.164V282.094C108.163 277.606 105.584 272.023 102.121 267.606C99.0819 263.719 93.8874 258.771 86.4314 257.252H86.3607L86.3961 257.181C87.1735 254.814 88.0569 252.27 88.9756 249.655C89.011 249.513 94.1701 236.121 96.9264 231.35L96.9617 231.315L140.638 246.757L140.567 246.828C136.68 252.27 134.631 256.015 134.277 258.277C133.606 262.694 134.913 265.874 139.436 270.998C141.945 273.825 142.899 276.687 143.217 278.595C143.571 280.645 143.323 282.094 143.323 282.094V282.164H108.799Z" fill="#FC8B8B"/>
<path d="M188.802 228.771C188.554 228.771 188.307 228.629 188.166 228.382C187.353 226.756 186.151 225.732 184.526 225.237C179.791 223.859 173.253 227.746 173.183 227.781C172.9 227.958 172.582 227.923 172.335 227.675C172.087 227.463 172.052 227.11 172.193 226.827C172.299 226.65 181.381 208.593 179.049 201.597C178.695 200.572 178.165 199.901 177.353 199.477C176.222 198.911 175.056 198.876 173.784 199.406C170.709 200.678 167.211 205.166 163.713 212.41C161.027 217.958 159.26 223.187 159.225 223.258C159.119 223.576 158.801 223.788 158.447 223.718C158.094 223.682 157.847 223.399 157.847 223.046C157.847 222.869 157.14 204.106 151.345 199.3C150.285 198.417 149.189 198.098 147.917 198.275C147.528 198.346 147.175 198.063 147.104 197.674C147.034 197.286 147.316 196.932 147.705 196.862C149.366 196.614 150.885 197.074 152.228 198.169C156.963 202.092 158.518 213.753 159.013 219.583C161.345 213.505 166.928 200.643 173.218 198.063C174.844 197.392 176.469 197.427 177.953 198.169C179.084 198.735 179.897 199.724 180.356 201.102C182.406 207.321 176.681 220.502 174.349 225.484C176.822 224.318 181.204 222.728 184.879 223.788C186.893 224.389 188.413 225.661 189.402 227.64C189.579 227.993 189.438 228.417 189.084 228.594C189.014 228.735 188.908 228.771 188.802 228.771Z" fill="black"/>
<path d="M157.458 245.591C157.175 245.591 156.893 245.414 156.787 245.096C156.08 242.941 156.433 240.361 157.635 238.382C158.624 236.792 160.073 235.767 161.698 235.485C163.925 235.096 165.338 236.015 166.115 236.827C167.458 238.206 167.918 240.255 167.635 241.492C167.564 241.881 167.176 242.128 166.787 242.022C166.398 241.951 166.151 241.562 166.221 241.174C166.363 240.432 166.045 238.806 165.055 237.781C164.243 236.933 163.183 236.615 161.875 236.863C160.638 237.075 159.543 237.852 158.765 239.089C157.741 240.75 157.458 242.87 158.059 244.637C158.165 245.025 157.988 245.414 157.599 245.52C157.599 245.591 157.529 245.591 157.458 245.591Z" fill="black"/>
<path d="M215.975 209.512C215.94 209.512 215.905 209.512 215.869 209.512C214.173 209.265 208.201 208.346 201.805 206.297C195.834 204.353 191.876 202.162 190.109 199.759C189.226 198.558 188.872 197.321 189.049 196.049C189.332 194.317 190.498 192.833 192.512 191.773C196.964 189.441 204.526 189.547 209.756 192.056C210.11 192.233 210.251 192.657 210.074 193.01C209.898 193.363 209.474 193.505 209.12 193.328C204.35 191.031 197.176 190.925 193.148 193.045C192.053 193.611 190.674 194.671 190.427 196.261C190.286 197.144 190.568 198.028 191.24 198.911C194.738 203.576 208.343 207.039 216.046 208.099C216.435 208.169 216.718 208.523 216.647 208.911C216.612 209.265 216.329 209.512 215.975 209.512Z" fill="black"/>
<path d="M170.533 180.289C169.755 180.289 168.978 180.183 168.2 179.971C166.504 179.476 165.232 178.416 164.49 176.755C161.84 170.995 166.045 159.617 167.953 155.058C162.865 157.779 148.871 164.564 143.748 159.44C142.334 158.027 141.769 156.154 142.157 154.034C142.687 150.853 145.832 144.457 160.886 137.143C161.239 136.966 161.663 137.107 161.84 137.461C162.017 137.814 161.875 138.238 161.522 138.415C150.956 143.539 144.419 149.334 143.571 154.246C143.288 155.907 143.712 157.355 144.772 158.451C149.26 162.939 163.854 155.907 169.119 152.832C169.402 152.691 169.72 152.726 169.967 152.903C170.179 153.115 170.25 153.433 170.144 153.716C170.073 153.857 162.865 169.617 165.868 176.154C166.469 177.427 167.388 178.239 168.695 178.593C177.6 181.137 182.618 165.412 182.653 165.235C182.759 164.953 183.042 164.741 183.325 164.741C183.643 164.741 183.925 164.953 183.996 165.271C183.996 165.341 185.798 171.525 190.71 173.646C193.607 174.882 197.035 174.494 200.957 172.444C201.311 172.267 201.735 172.409 201.912 172.727C202.088 173.08 201.947 173.504 201.629 173.681C197.318 175.942 193.466 176.366 190.144 174.918C186.399 173.292 184.314 169.723 183.36 167.497C182.724 169.087 181.664 171.49 180.144 173.787C177.211 178.063 173.96 180.289 170.533 180.289Z" fill="black"/>
<path d="M136.397 184.812C136.221 184.812 136.044 184.741 135.903 184.6C135.62 184.317 135.62 183.893 135.903 183.61C135.938 183.575 140.532 178.699 137.811 174.352C133.57 167.426 117.74 174.6 117.563 174.67C117.28 174.812 116.927 174.741 116.715 174.494C116.503 174.246 116.503 173.893 116.68 173.646C116.786 173.504 126.574 158.663 124.065 151.454C123.5 149.829 122.333 148.733 120.531 148.133C118.446 147.461 116.503 147.673 114.63 148.769C107.068 153.186 103.534 170.218 103.499 170.395C103.428 170.677 103.181 170.925 102.898 170.96C102.58 170.995 102.298 170.819 102.192 170.571C102.121 170.43 94.8416 154.882 87.9863 153.115C86.6082 152.762 85.4067 153.009 84.2406 153.857C82.7918 154.952 82.0144 156.295 81.9437 158.027C81.5904 165.094 92.5094 175.13 92.6154 175.236C92.8627 175.448 92.8981 175.801 92.7567 176.084C92.6154 176.366 92.2974 176.508 92.0147 176.472L91.4139 176.366C85.5127 175.342 76.5726 173.752 73.4983 180.642C73.3216 180.996 72.9329 181.172 72.5795 180.996C72.2262 180.819 72.0495 180.43 72.2262 180.077C75.4418 172.903 84.0286 173.716 90.0358 174.706C86.8555 171.455 80.2476 163.999 80.5656 157.991C80.6716 155.836 81.6257 154.069 83.4279 152.762C84.912 151.666 86.5728 151.313 88.375 151.772C94.4529 153.327 100.425 163.893 102.616 168.204C103.817 163.433 107.386 151.454 113.959 147.602C116.185 146.295 118.552 146.048 121.026 146.825C123.252 147.532 124.772 148.945 125.478 151.03C127.669 157.355 121.768 168.204 119.118 172.585C123.818 170.783 135.161 167.285 139.083 173.681C142.369 178.946 137.21 184.423 136.963 184.635C136.751 184.741 136.574 184.812 136.397 184.812Z" fill="black"/>
<path d="M98.022 147.072C96.8559 147.072 95.7251 146.719 94.6297 146.012C91.096 143.68 88.3751 137.39 87.5977 129.616C87.5624 129.227 87.845 128.874 88.2337 128.839C88.6225 128.803 88.9758 129.086 89.0112 129.475C89.7532 136.86 92.2268 142.726 95.4071 144.846C96.6792 145.694 98.0573 145.871 99.4708 145.447C100.425 145.164 101.096 144.528 101.591 143.574C103.747 139.228 100.425 129.864 100.425 129.793C100.284 129.44 100.496 129.015 100.849 128.874C101.202 128.733 101.626 128.945 101.768 129.298C101.909 129.687 105.301 139.298 102.898 144.21C102.262 145.518 101.273 146.366 99.9655 146.79C99.2588 147.002 98.6227 147.072 98.022 147.072Z" fill="black"/>
<path d="M60.7771 149.263C60.3884 149.263 59.9644 149.263 59.5757 149.228C59.187 149.193 58.9043 148.875 58.9043 148.486C58.9396 148.097 59.2577 147.814 59.6464 147.814C65.4769 148.168 73.8163 145.694 74.1344 140.889C74.205 139.581 73.7457 138.521 72.7209 137.779C70.5654 136.189 66.3603 136.083 62.65 137.461C62.2966 137.602 61.8726 137.426 61.7312 137.037C61.5899 136.683 61.7666 136.259 62.1553 136.118C66.325 134.528 71.0247 134.74 73.5336 136.613C74.9471 137.673 75.6538 139.157 75.5478 140.959C75.3712 143.751 73.3216 146.012 69.576 147.567C67.0317 148.627 63.7454 149.263 60.7771 149.263Z" fill="black"/>
<path d="M65.8656 167.85C63.2154 167.85 60.4591 166.826 60.2824 166.755C59.9291 166.614 59.717 166.225 59.8584 165.836C59.9997 165.483 60.3884 165.271 60.7771 165.412C62.1553 165.942 66.1836 167.038 68.1625 165.942C68.7985 165.589 69.1519 165.059 69.2932 164.281C69.9293 160.783 65.3002 156.649 58.7983 154.882C58.4096 154.776 58.1976 154.387 58.3036 153.998C58.4096 153.61 58.7983 153.398 59.187 153.504C66.5017 155.483 71.4488 160.218 70.6714 164.529C70.4594 165.73 69.8586 166.614 68.8339 167.179C68.0565 167.674 66.961 167.85 65.8656 167.85Z" fill="black"/>
<path d="M185.091 151.984C182.582 151.984 180.462 150.677 179.19 148.981C177.564 146.79 177.6 144.281 179.225 142.761C179.508 142.479 179.967 142.514 180.215 142.797C180.497 143.079 180.462 143.539 180.179 143.786C178.907 144.952 179.331 146.825 180.321 148.133C182.512 151.101 186.081 150.959 188.448 149.581C188.802 149.369 189.226 149.511 189.402 149.829C189.579 150.147 189.473 150.606 189.155 150.783C187.777 151.631 186.399 151.984 185.091 151.984Z" fill="black"/>
<path d="M100.778 184.883H100.743C100.354 184.847 100.072 184.529 100.072 184.14C100.284 181.172 103.216 179.405 105.796 179.511C108.376 179.617 110.072 181.42 110.072 184.14C110.072 184.529 109.754 184.847 109.365 184.847C108.976 184.847 108.658 184.529 108.658 184.14C108.658 181.349 106.644 180.96 105.761 180.925C103.817 180.854 101.626 182.162 101.485 184.247C101.45 184.6 101.132 184.883 100.778 184.883Z" fill="black"/>
<path d="M148.341 192.727C148.27 192.727 148.164 192.727 148.094 192.692C143.147 190.678 134.03 191.349 133.924 191.349C133.57 191.385 133.252 191.137 133.182 190.819C133.111 190.501 133.252 190.148 133.57 190.006C133.641 189.971 138.906 187.639 140.991 184.353C141.203 184.035 141.627 183.929 141.98 184.141C142.298 184.353 142.404 184.777 142.192 185.13C140.92 187.144 138.694 188.77 136.927 189.865C140.178 189.83 145.231 190.042 148.624 191.42C148.977 191.561 149.154 191.985 149.012 192.339C148.871 192.551 148.624 192.727 148.341 192.727Z" fill="black"/>
<path d="M125.514 227.498C123.535 227.498 121.733 226.898 120.107 225.696C114.807 221.809 112.899 212.728 112.333 208.947C110.955 210.572 108.305 213.47 104.877 215.908C98.0926 220.749 91.5906 221.527 86.0428 218.099C85.7248 217.887 85.6188 217.463 85.7954 217.11C86.0075 216.792 86.4315 216.686 86.7849 216.862C99.0113 224.424 112.121 206.933 112.227 206.756C112.404 206.509 112.687 206.403 112.969 206.509C113.252 206.579 113.464 206.827 113.499 207.109C113.499 207.251 114.807 220.042 120.92 224.53C122.828 225.908 125.019 226.368 127.493 225.838C129.295 225.449 130.532 224.53 131.238 222.975C134.348 216.438 127.069 201.844 126.998 201.703C126.857 201.385 126.927 200.996 127.21 200.819C127.493 200.607 127.881 200.643 128.129 200.89C128.164 200.925 130.532 203.364 134.101 205.519C137.316 207.463 142.228 209.583 147.175 208.593C147.564 208.523 147.917 208.77 148.023 209.159C148.129 209.548 147.846 209.901 147.458 210.007C143.182 210.89 138.306 209.76 133.358 206.756C131.91 205.873 130.673 204.954 129.683 204.176C131.733 209.017 135.055 218.346 132.546 223.647C131.627 225.555 130.037 226.792 127.811 227.286C127.033 227.392 126.256 227.498 125.514 227.498Z" fill="black"/>
<path d="M131.309 244.319C131.203 244.319 131.062 244.283 130.956 244.213C130.602 244.001 130.496 243.577 130.708 243.259C130.744 243.223 132.687 239.866 131.839 237.251C131.486 236.156 130.708 235.343 129.471 234.813C123.924 232.34 117.139 235.626 113.641 237.817C113.323 238.029 112.863 237.923 112.651 237.569C112.439 237.251 112.545 236.792 112.899 236.58C116.68 234.248 123.888 230.785 130.072 233.506C131.698 234.212 132.758 235.343 133.217 236.827C134.242 240.043 132.051 243.824 131.98 244.001C131.804 244.177 131.556 244.319 131.309 244.319Z" fill="black"/>
<path d="M113.075 198.77C111.98 198.77 110.92 198.346 110.107 197.392C109.86 197.074 109.895 196.65 110.213 196.402C110.531 196.155 110.955 196.19 111.202 196.508C112.227 197.745 113.853 197.533 114.948 196.791C116.114 196.014 117.068 194.353 115.973 192.268C115.796 191.915 115.938 191.491 116.256 191.314C116.609 191.137 117.033 191.279 117.21 191.597C118.658 194.353 117.492 196.791 115.69 197.957C114.948 198.452 114.029 198.77 113.075 198.77Z" fill="black"/>
<path d="M134.56 257.888H124.524C124.136 257.888 123.817 257.57 123.817 257.181C123.817 256.793 124.136 256.474 124.524 256.474H134.56C134.949 256.474 135.267 256.793 135.267 257.181C135.267 257.57 134.949 257.888 134.56 257.888Z" fill="black"/>
<path d="M125.938 268.666C125.69 268.666 125.443 268.524 125.302 268.277C125.125 267.924 125.266 267.5 125.62 267.323L134.242 263.047C134.595 262.87 135.019 263.012 135.196 263.365C135.373 263.719 135.231 264.143 134.878 264.319L126.256 268.595C126.15 268.63 126.044 268.666 125.938 268.666Z" fill="black"/>
<path d="M190.639 250.997C190.321 250.997 190.003 250.75 189.933 250.432C189.862 250.043 190.109 249.69 190.498 249.619L199.509 247.958C199.898 247.888 200.251 248.135 200.322 248.524C200.392 248.912 200.145 249.266 199.756 249.337L190.745 250.997C190.71 250.997 190.675 250.997 190.639 250.997Z" fill="black"/>
<path d="M194.95 261.386C194.703 261.386 194.456 261.245 194.314 260.998C194.138 260.644 194.279 260.22 194.632 260.044L202.901 255.909C203.254 255.732 203.678 255.874 203.855 256.227C204.032 256.581 203.891 257.005 203.537 257.181L195.268 261.316C195.162 261.351 195.056 261.386 194.95 261.386Z" fill="black"/>
<path d="M203.078 257.429C202.83 257.429 202.583 257.287 202.477 257.075C202.3 256.793 202.371 256.439 202.618 256.192L232.654 228.7C233.184 228.205 233.75 227.781 234.386 227.428C236.612 226.12 239.227 225.767 241.771 226.438C244.28 227.11 246.365 228.7 247.672 230.961C247.99 231.527 248.273 232.163 248.52 232.905C249.298 235.379 249.05 238.029 247.849 240.326C246.648 242.623 244.633 244.319 242.16 245.096L203.325 257.358C203.219 257.429 203.148 257.429 203.078 257.429ZM239.227 227.534C237.778 227.534 236.365 227.923 235.093 228.665C234.562 228.947 234.068 229.336 233.644 229.725L205.975 255.061L241.771 243.753C243.891 243.082 245.623 241.633 246.648 239.654C247.672 237.675 247.884 235.414 247.213 233.329C247.001 232.693 246.754 232.128 246.506 231.668C245.375 229.76 243.609 228.382 241.453 227.817C240.64 227.64 239.934 227.534 239.227 227.534Z" fill="black"/>
<path d="M227.212 266.581C226.47 266.581 225.728 266.439 225.022 266.157L202.795 257.429C202.477 257.323 202.3 257.005 202.371 256.651C202.406 256.333 202.689 256.086 203.042 256.051L226.859 254.566H226.894C227.318 254.566 227.742 254.566 228.202 254.637C229.792 254.884 231.17 255.732 232.124 257.005C233.078 258.312 233.467 259.867 233.184 261.457C233.114 261.775 233.008 262.234 232.831 262.694C232.265 264.178 231.135 265.344 229.651 266.015C228.873 266.439 228.06 266.581 227.212 266.581ZM206.293 257.287L225.552 264.849C226.682 265.309 227.954 265.273 229.05 264.779C230.181 264.284 231.029 263.401 231.488 262.234C231.629 261.881 231.735 261.492 231.771 261.245C231.947 260.044 231.665 258.842 230.958 257.853C230.251 256.863 229.156 256.227 227.954 256.015C227.636 255.945 227.283 255.944 226.93 255.944L206.293 257.287Z" fill="black"/>
<path d="M203.077 257.499C202.724 257.499 202.406 257.217 202.371 256.828C201.982 251.103 203.89 246.757 205.728 242.552C207.883 237.605 209.933 232.94 208.095 226.368C207.989 225.979 208.201 225.59 208.59 225.484C208.979 225.378 209.367 225.59 209.473 225.979C211.417 233.011 209.191 238.135 207.035 243.082C205.268 247.146 203.431 251.351 203.819 256.722C203.855 257.111 203.537 257.464 203.148 257.464C203.113 257.499 203.077 257.499 203.077 257.499Z" fill="black"/>
<path d="M207.106 82.4064C205.269 82.4064 204.562 81.311 204.562 81.2757V81.2403C202.512 73.7136 214.138 60.9571 214.244 60.8158L214.35 60.7098L214.385 60.8511C214.421 60.9571 217 71.4874 218.838 77.636V77.6713L218.803 77.7067C216.435 79.4735 213.679 81.417 210.781 82.0531C209.262 82.3711 209.085 82.4064 207.99 82.4064H207.106Z" fill="black"/>
<path d="M219.403 77.424C217.566 71.3107 214.986 60.8158 214.951 60.7098C212.866 52.017 207.495 28.6595 208.06 25.0905C208.378 23.147 209.226 22.1222 210.675 22.1222C211.064 22.1222 211.311 22.1929 211.311 22.1929C211.382 22.2282 211.452 22.2282 211.523 22.2282C211.7 22.2282 211.841 22.1576 211.983 22.0515C212.159 21.9102 212.265 21.6628 212.23 21.4155C211.771 18.0938 212.371 16.6097 212.937 15.9736C213.431 15.4083 214.032 15.3023 214.385 15.3023C214.456 15.3023 214.527 15.3023 214.527 15.3023C214.562 15.3023 214.597 15.3023 214.633 15.3023C214.986 15.3023 215.269 15.0549 215.34 14.7015C215.728 12.2986 216.965 11.8039 217.954 11.8039C218.166 11.8039 218.308 11.8393 218.308 11.8393C218.343 11.8393 218.414 11.8393 218.449 11.8393C218.767 11.8393 219.05 11.6273 219.121 11.3446C219.474 10.1785 220.145 9.57773 221.064 9.57773C221.983 9.57773 222.937 10.2138 223.326 11.0619C224.35 13.4294 227.778 23.0056 227.813 23.1116C227.919 23.3943 228.202 23.571 228.485 23.571C228.52 23.571 228.591 23.571 228.626 23.571C228.838 23.5357 229.05 23.5003 229.262 23.5003C231.524 23.5003 233.291 26.5393 235.446 31.4511C236.365 33.5006 239.333 40.5326 244.316 52.2643L249.086 66.4696L223.644 89.5798L219.403 77.424Z" fill="white"/>
<path d="M221.029 10.3198C221.665 10.3198 222.371 10.7792 222.619 11.3799C223.608 13.7121 227.036 23.2883 227.071 23.3943C227.283 23.9597 227.813 24.3484 228.414 24.3484C228.52 24.3484 228.626 24.3484 228.732 24.3131C228.909 24.2778 229.05 24.2424 229.191 24.2424C231.17 24.2424 233.008 27.8468 234.704 31.7691C235.587 33.8186 238.591 40.8153 243.573 52.5824L248.203 66.3283L223.891 88.4137L220.075 77.212C218.237 71.0988 215.658 60.6391 215.658 60.5331C212.76 48.4833 208.308 28.2708 208.767 25.1965C209.12 22.8643 210.286 22.829 210.675 22.829C210.887 22.829 211.064 22.8643 211.099 22.8643C211.24 22.8996 211.382 22.935 211.523 22.935C211.841 22.935 212.159 22.829 212.407 22.6169C212.795 22.2989 212.937 21.8042 212.901 21.3448C212.477 18.1292 213.043 16.8924 213.431 16.433C213.749 16.0797 214.103 16.009 214.315 16.009C214.35 16.009 214.35 16.009 214.35 16.009C214.456 16.0443 214.527 16.0443 214.633 16.0443C214.915 16.0443 215.163 15.9737 215.41 15.797C215.728 15.585 215.905 15.2316 215.976 14.8429C216.223 13.3234 216.859 12.546 217.884 12.546C217.99 12.546 218.06 12.546 218.096 12.546C218.202 12.5813 218.308 12.5814 218.449 12.5814C219.05 12.5814 219.58 12.1573 219.757 11.5566C220.039 10.7438 220.463 10.3198 221.029 10.3198ZM221.029 8.90634C219.969 8.90634 218.909 9.5424 218.414 11.1679C218.414 11.1679 218.237 11.1325 217.919 11.1325C217 11.1325 215.127 11.5213 214.633 14.6309C214.633 14.6309 214.527 14.6309 214.385 14.6309C213.502 14.6309 210.675 15.1256 211.523 21.5568C211.523 21.5568 211.17 21.4508 210.675 21.4508C209.615 21.4508 207.848 21.9455 207.353 25.0198C206.647 29.5076 214.244 60.9218 214.244 60.9218C214.244 60.9218 216.824 71.4875 218.696 77.7067L223.22 90.9579L249.793 66.7877L244.916 52.0523C240.923 42.6528 237.107 33.6066 236.047 31.2037C233.821 26.1506 231.912 22.829 229.227 22.829C228.979 22.829 228.732 22.8643 228.449 22.8996C228.449 22.8996 224.986 13.2527 223.962 10.8145C223.467 9.71909 222.23 8.90634 221.029 8.90634Z" fill="black"/>
<path d="M245.729 121.701C239.474 121.701 229.721 119.05 218.838 106.471C211.311 97.7779 206.223 87.5303 204.526 81.2757C204.526 81.2757 210.216 84.1733 218.732 77.5653C222.371 74.4204 224.598 71.5581 227.177 68.2365C228.979 65.9042 231.029 63.2893 233.856 60.1797C240.605 52.759 244.81 52.0523 244.846 52.017H244.916L244.952 52.0523C249.828 63.572 254.952 75.6572 255.376 76.6819L302.126 52.8297L305.624 56.8227L281.278 108.556C281.172 108.697 270.606 120.676 246.718 121.701C246.4 121.701 246.082 121.701 245.729 121.701Z" fill="#96B7F6"/>
<path d="M221.488 54.6672C221.135 54.6672 220.817 54.3845 220.781 53.9958C220.18 44.879 225.834 39.4018 227.283 38.165C227.212 37.7763 227.142 37.3876 227.071 36.9636C226.152 31.6631 224.845 24.4191 228.131 22.9703C228.485 22.8289 228.909 22.9703 229.05 23.3236C229.191 23.677 229.05 24.101 228.697 24.2424C226.47 25.2318 227.813 32.9705 228.485 36.6809C228.591 37.2816 228.697 37.847 228.767 38.3064C228.803 38.5537 228.697 38.8364 228.485 38.9777C228.414 39.0131 221.559 44.3842 222.195 53.8898C222.23 54.2785 221.912 54.6319 221.523 54.6319C221.523 54.6672 221.488 54.6672 221.488 54.6672Z" fill="black"/>
<path d="M223.255 31.9105C222.972 31.9105 222.69 31.7338 222.584 31.4158C222.054 29.7196 217.354 14.8783 218.449 11.3093C218.555 10.9206 218.944 10.7439 219.333 10.8499C219.721 10.9559 219.933 11.3446 219.792 11.7333C219.05 14.1008 221.877 24.5605 223.926 30.9917C224.032 31.3804 223.856 31.7691 223.467 31.8751C223.396 31.9105 223.326 31.9105 223.255 31.9105Z" fill="black"/>
<path d="M219.439 34.6667C219.121 34.6667 218.873 34.49 218.767 34.172C214.986 22.1576 214.633 15.3023 214.597 15.0196C214.562 14.6309 214.88 14.3128 215.269 14.2775C215.658 14.2775 215.976 14.5602 216.011 14.9489C216.011 15.0196 216.4 21.9102 220.11 33.748C220.216 34.1367 220.004 34.5254 219.651 34.6314C219.58 34.6667 219.509 34.6667 219.439 34.6667Z" fill="black"/>
<path d="M215.658 38.0944C215.34 38.0944 215.057 37.8824 214.986 37.5643C212.901 30.073 211.523 22.0516 211.523 21.9809C211.453 21.5922 211.7 21.2388 212.089 21.1682C212.477 21.0975 212.831 21.3448 212.901 21.7335C212.901 21.8042 214.315 29.7549 216.364 37.1756C216.47 37.5643 216.258 37.953 215.87 38.059C215.799 38.0944 215.728 38.0944 215.658 38.0944Z" fill="black"/>
<path d="M213.573 39.8258C213.361 39.8258 213.149 39.7198 213.007 39.5431C212.76 39.2251 212.831 38.8011 213.149 38.5537L223.856 30.2849C224.174 30.0376 224.598 30.1083 224.845 30.4263C225.093 30.7443 225.022 31.1684 224.704 31.4157L213.997 39.6845C213.891 39.7905 213.714 39.8258 213.573 39.8258Z" fill="black"/>
<path d="M258.45 85.0567C258.168 85.0567 257.92 84.88 257.779 84.6326L254.669 77.0353C254.528 76.6819 254.705 76.2579 255.058 76.1165C255.411 75.9752 255.835 76.1519 255.977 76.5052L259.086 84.1026C259.228 84.456 259.051 84.88 258.698 85.0213C258.627 85.0567 258.556 85.0567 258.45 85.0567Z" fill="black"/>
<path d="M216.011 99.7214C214.916 99.7214 213.891 99.6154 212.972 99.4034C212.583 99.3327 212.336 98.944 212.442 98.5553C212.513 98.1666 212.901 97.9192 213.29 98.0252C218.096 99.05 225.552 97.8132 233.573 86.0108C239.651 77.1413 247.178 70.1447 252.302 68.6252C252.69 68.5192 253.079 68.7312 253.185 69.1199C253.291 69.5086 253.079 69.8973 252.69 70.0033C247.849 71.4168 240.641 78.2014 234.739 86.8235C227.743 97.0358 221.064 99.7214 216.011 99.7214Z" fill="black"/>
<path d="M258.698 147.214L305.342 52.5117L325.837 51.3456L355.873 147.214H258.698Z" fill="#96B7F6"/>
<path d="M300.571 125.093C300.536 125.093 300.501 125.093 300.43 125.093C300.041 125.022 299.794 124.634 299.865 124.28L310.536 67.6711C310.607 67.2824 310.996 67.035 311.349 67.1057C311.738 67.1764 311.985 67.5651 311.914 67.9185L301.243 124.528C301.207 124.846 300.889 125.093 300.571 125.093Z" fill="black"/>
<path d="M275.553 113.856C275.447 113.856 275.341 113.821 275.235 113.785C274.882 113.609 274.74 113.185 274.917 112.831L301.632 58.8369C301.808 58.4836 302.232 58.3422 302.586 58.5189C302.939 58.6956 303.08 59.1196 302.904 59.473L276.189 113.467C276.048 113.715 275.8 113.856 275.553 113.856Z" fill="black"/>
<path d="M243.962 74.7031C243.679 74.7031 243.432 74.5617 243.326 74.279L236.082 57.6355C235.941 57.2821 236.082 56.8581 236.435 56.7167C236.789 56.5754 237.213 56.7167 237.354 57.0701L244.598 73.7136C244.739 74.067 244.598 74.491 244.245 74.6324C244.139 74.6677 244.068 74.7031 243.962 74.7031Z" fill="black"/>
<path d="M233.361 88.1309C233.114 88.1309 232.867 87.9896 232.725 87.7422L224.562 71.1694C224.386 70.816 224.527 70.392 224.88 70.2153C225.234 70.0386 225.658 70.1799 225.835 70.5333L233.997 87.1062C234.174 87.4596 234.033 87.8836 233.679 88.0603C233.573 88.0956 233.467 88.1309 233.361 88.1309Z" fill="black"/>
<path d="M221.524 98.1666C221.276 98.1666 221.064 98.0606 220.923 97.8132L220.817 97.6365C218.096 93.1841 214.668 87.6363 211.912 80.781C211.771 80.4276 211.947 80.0036 212.301 79.8622C212.654 79.7209 213.078 79.8976 213.219 80.2509C215.94 87.0002 219.333 92.4774 222.018 96.8945L222.124 97.0711C222.336 97.3892 222.23 97.8486 221.877 98.0606C221.771 98.1312 221.665 98.1666 221.524 98.1666Z" fill="black"/>
<path d="M333.328 186.649C330.926 186.649 327.993 184.176 325.943 182.091C323.682 179.759 321.279 176.649 319.83 174.105L319.795 174.034L319.865 173.999C319.936 173.964 326.65 171.384 333.364 168.274L333.434 168.239L333.47 168.31C333.505 168.38 337.852 174.423 337.498 180.254C337.18 185.413 334.141 186.579 334.035 186.579C333.823 186.614 333.576 186.649 333.328 186.649Z" fill="black"/>
<path d="M309.512 122.796C282.444 120.005 244.987 136.401 238.096 140.182C235.234 141.737 233.255 143.821 233.821 147.284H265.447C261.418 155.836 260.252 162.939 265.871 163.327C273.221 163.822 280.748 153.504 284.599 147.284H331.597C331.632 147.284 336.438 125.552 309.512 122.796Z" fill="#FCC370"/>
<path d="M268.415 109.616H280.995C280.995 109.616 291.384 99.5801 293.928 101.7C298.239 105.305 289.97 139.475 265.164 136.966C242.266 134.634 257.602 98.52 263.715 99.2267C266.613 99.5447 268.415 109.616 268.415 109.616Z" fill="#FCC370"/>
<path d="M267.673 137.779C266.825 137.779 265.977 137.744 265.093 137.638C260.853 137.214 257.637 135.659 255.447 132.973C255.199 132.655 255.235 132.231 255.553 131.984C255.871 131.736 256.295 131.772 256.542 132.09C258.45 134.457 261.383 135.871 265.199 136.259C271.878 136.931 281.348 135.235 288.698 123.22C288.91 122.902 289.334 122.796 289.688 122.973C290.006 123.185 290.112 123.609 289.935 123.962C284.423 132.938 276.613 137.779 267.673 137.779Z" fill="black"/>
<path d="M270.747 122.549H266.613C266.224 122.549 265.906 122.231 265.906 121.842C265.906 121.453 266.224 121.135 266.613 121.135H270.747C271.136 121.135 271.454 121.453 271.454 121.842C271.454 122.231 271.136 122.549 270.747 122.549Z" fill="black"/>
<path d="M267.673 127.567C267.638 127.567 267.567 127.567 267.532 127.567C267.143 127.496 266.896 127.107 266.966 126.754L267.956 121.736C268.027 121.347 268.415 121.1 268.769 121.171C269.157 121.241 269.405 121.63 269.334 121.983L268.345 127.001C268.309 127.319 267.991 127.567 267.673 127.567Z" fill="black"/>
<path d="M267.991 127.92C266.118 127.92 264.316 127.213 263.185 125.871C262.938 125.588 262.973 125.128 263.291 124.881C263.574 124.634 264.033 124.669 264.281 124.987C265.73 126.719 269.228 127.249 271.949 125.234C272.267 124.987 272.691 125.058 272.938 125.376C273.186 125.694 273.115 126.118 272.797 126.365C271.348 127.39 269.617 127.92 267.991 127.92Z" fill="black"/>
<path d="M278.84 120.747C278.734 120.747 278.628 120.711 278.522 120.676C278.168 120.499 278.027 120.075 278.204 119.722L278.557 118.98C278.734 118.626 279.158 118.485 279.511 118.662C279.864 118.838 280.006 119.263 279.829 119.616L279.476 120.358C279.37 120.605 279.087 120.747 278.84 120.747Z" fill="black"/>
<path d="M287.815 112.478C287.709 112.478 287.567 112.443 287.461 112.372C287.108 112.195 287.002 111.736 287.179 111.418L288.981 108.167C289.158 107.814 289.617 107.708 289.935 107.884C290.288 108.061 290.394 108.52 290.218 108.838L288.416 112.089C288.31 112.337 288.062 112.478 287.815 112.478Z" fill="black"/>
<path d="M262.302 111.736C261.913 111.736 261.595 111.418 261.595 111.029V107.46C261.595 107.071 261.913 106.753 262.302 106.753C262.691 106.753 263.009 107.071 263.009 107.46V111.029C263.009 111.418 262.691 111.736 262.302 111.736Z" fill="black"/>
<path d="M261.207 120.747C261.101 120.747 260.995 120.711 260.889 120.676C260.535 120.499 260.394 120.075 260.571 119.722L260.924 118.98C261.101 118.626 261.525 118.485 261.878 118.662C262.231 118.838 262.373 119.263 262.196 119.616L261.843 120.358C261.737 120.605 261.454 120.747 261.207 120.747Z" fill="black"/>
<path d="M284.635 147.991C284.529 147.991 284.423 147.956 284.281 147.921C283.928 147.744 283.822 147.32 283.999 146.966L285.765 143.716C285.942 143.362 286.366 143.256 286.719 143.433C287.073 143.61 287.179 144.034 287.002 144.387L285.235 147.638C285.129 147.85 284.882 147.991 284.635 147.991Z" fill="black"/>
<path d="M265.447 147.991C265.341 147.991 265.235 147.956 265.129 147.92C264.775 147.744 264.669 147.32 264.846 146.966L267.85 141.313C268.026 140.959 268.45 140.853 268.804 141.03C269.157 141.207 269.263 141.631 269.087 141.984L266.083 147.638C265.942 147.85 265.694 147.991 265.447 147.991Z" fill="black"/>
<path d="M263.963 163.045C263.574 163.045 263.256 162.727 263.256 162.338C263.256 161.172 263.503 160.041 264.034 158.946C264.21 158.592 264.634 158.451 264.988 158.592C265.341 158.769 265.482 159.193 265.341 159.546C264.917 160.465 264.705 161.419 264.705 162.373C264.67 162.727 264.352 163.045 263.963 163.045Z" fill="black"/>
<path d="M267.426 163.751C267.037 163.751 266.719 163.433 266.719 163.045C266.719 161.879 266.966 160.748 267.496 159.652C267.673 159.299 268.097 159.158 268.451 159.299C268.804 159.476 268.945 159.9 268.804 160.253C268.38 161.172 268.168 162.126 268.168 163.08C268.132 163.433 267.814 163.751 267.426 163.751Z" fill="black"/>
<path d="M237.496 147.991C237.142 147.991 236.824 147.708 236.789 147.32C236.789 147.249 236.683 145.553 237.46 144.352C237.672 144.033 238.096 143.927 238.45 144.139C238.768 144.351 238.874 144.776 238.662 145.129C238.238 145.8 238.202 146.896 238.202 147.249C238.238 147.638 237.92 147.991 237.531 147.991H237.496Z" fill="black"/>
<path d="M240.959 147.991C240.605 147.991 240.287 147.708 240.252 147.32C240.252 147.249 240.146 145.553 240.923 144.352C241.135 144.033 241.559 143.927 241.913 144.139C242.231 144.351 242.337 144.776 242.125 145.129C241.701 145.8 241.665 146.896 241.665 147.249C241.701 147.638 241.383 147.991 240.994 147.991H240.959Z" fill="black"/>
<path d="M296.755 178.981C291.631 178.981 290.889 176.967 290.889 176.967C290.818 176.649 290.536 176.472 290.218 176.472C290.182 176.472 287.709 176.437 286.472 175.094C285.907 174.494 285.695 173.716 285.765 172.762C285.801 172.479 285.624 172.197 285.377 172.091C285.377 172.091 283.892 171.313 283.61 170.006C283.433 169.193 283.751 168.274 284.564 167.285C284.67 167.144 284.741 166.931 284.705 166.755C284.67 166.578 284.599 166.401 284.422 166.26C284.422 166.26 283.256 165.341 283.256 163.999C283.292 162.868 284.14 161.702 285.765 160.5C288.097 158.839 296.296 154.74 296.366 154.705C296.614 154.599 296.755 154.316 296.755 154.034C296.755 153.751 296.578 153.504 296.331 153.398C296.331 153.398 294.847 152.762 294.493 151.525C294.281 150.783 294.529 149.899 295.235 148.945C296.684 146.931 301.596 144.281 308.381 140.606C310.042 139.687 311.808 138.733 313.681 137.708L332.622 129.121L345.555 159.652L333.046 167.709C326.332 170.819 319.688 173.398 319.618 173.398C319.512 173.433 310.289 177.073 301.455 178.522C299.723 178.84 298.133 178.981 296.755 178.981Z" fill="white"/>
<path d="M332.268 130.04L344.707 159.37L332.728 167.073C326.049 170.147 319.441 172.691 319.37 172.727C319.264 172.762 310.112 176.366 301.384 177.815C299.653 178.098 298.133 178.239 296.755 178.239C292.691 178.239 291.702 176.967 291.561 176.72C291.455 176.048 290.889 175.73 290.218 175.73C289.617 175.73 287.815 175.518 286.967 174.564C286.543 174.105 286.401 173.539 286.437 172.762C286.472 172.197 286.189 171.667 285.659 171.384C285.341 171.207 284.423 170.607 284.281 169.794C284.175 169.193 284.423 168.486 285.094 167.674C285.341 167.391 285.447 167.002 285.412 166.614C285.377 166.225 285.165 165.907 284.882 165.659C284.882 165.659 283.963 164.917 283.998 163.963C284.034 163.08 284.776 162.055 286.225 161.03C288.522 159.405 296.649 155.306 296.72 155.27C297.214 155.023 297.532 154.528 297.497 153.963C297.462 153.398 297.144 152.938 296.649 152.726C296.331 152.585 295.412 152.055 295.235 151.313C295.094 150.783 295.306 150.111 295.872 149.334C297.25 147.461 302.338 144.705 308.769 141.207C310.466 140.288 312.197 139.334 314.07 138.309L332.268 130.04ZM333.01 128.167L313.399 137.072C303.752 142.408 296.649 145.871 294.705 148.521C291.949 152.302 296.084 154.034 296.084 154.034C296.084 154.034 287.815 158.168 285.377 159.9C279.97 163.751 283.998 166.79 283.998 166.79C280.889 170.571 285.023 172.656 285.023 172.656C284.67 177.144 290.182 177.144 290.182 177.144C290.182 177.144 290.854 179.653 296.72 179.653C298.062 179.653 299.653 179.511 301.561 179.193C310.572 177.674 319.865 174.034 319.865 174.034C319.865 174.034 326.544 171.455 333.364 168.31L346.438 159.9L333.01 128.167Z" fill="black"/>
<path d="M378.983 116.754C377.711 108.874 374.177 100.393 368.418 91.5939C363.824 84.5619 357.817 77.2826 350.608 69.9679C338.275 57.5295 326.508 49.19 326.367 49.084L326.296 49.0487L318.77 58.7662L342.94 118.45C332.198 126.294 321.95 132.231 313.363 136.966L313.328 137.001V137.037C313.328 137.107 314.706 142.691 318.134 147.496C320.289 150.5 322.268 152.938 324.176 155.27C327.321 159.157 330.289 162.797 333.328 168.239C338.664 178.522 336.827 185.483 334.07 186.508C336.155 185.978 348.7 177.25 360.149 164.175C366.651 156.755 371.598 149.299 374.884 142.055C378.842 133.22 380.22 124.704 378.983 116.754Z" fill="#96B7F6"/>
<path d="M343.011 119.227C342.728 119.227 342.481 119.05 342.339 118.768L328.099 83.5372C327.957 83.1839 328.134 82.7598 328.487 82.6185C328.841 82.4771 329.265 82.6538 329.406 83.0072L343.647 118.238C343.788 118.591 343.611 119.015 343.258 119.157C343.187 119.227 343.117 119.227 343.011 119.227Z" fill="black"/>
<path d="M326.403 130.252C326.155 130.252 325.943 130.146 325.802 129.899C325.59 129.581 325.696 129.121 326.049 128.945C332.198 125.199 337.604 121.595 342.587 117.955L347.074 114.492C347.392 114.245 347.816 114.315 348.064 114.633C348.311 114.951 348.241 115.375 347.923 115.623L343.435 119.086C338.417 122.761 332.975 126.365 326.791 130.146C326.65 130.217 326.544 130.252 326.403 130.252Z" fill="black"/>
<path d="M354.071 171.137C354.036 171.137 354.071 171.137 354.071 171.137C353.647 171.101 353.329 170.783 353.364 170.395C353.47 167.886 352.94 165.023 351.703 161.914C350.113 157.85 346.297 152.938 342.233 147.744C336.968 140.959 331.491 133.962 329.936 127.567C329.83 127.178 330.077 126.789 330.466 126.718C330.855 126.612 331.244 126.86 331.314 127.249C332.798 133.326 338.169 140.217 343.364 146.896C347.463 152.161 351.385 157.179 353.011 161.419C354.283 164.741 354.884 167.78 354.742 170.465C354.742 170.854 354.46 171.137 354.071 171.137Z" fill="black"/>
<path d="M292.727 81.205C294.834 81.205 296.543 79.4964 296.543 77.3887C296.543 75.2809 294.834 73.5723 292.727 73.5723C290.619 73.5723 288.91 75.2809 288.91 77.3887C288.91 79.4964 290.619 81.205 292.727 81.205Z" fill="black"/>
<path d="M296.861 87.4243C298.969 87.4243 300.677 85.7156 300.677 83.6079C300.677 81.5002 298.969 79.7916 296.861 79.7916C294.753 79.7916 293.045 81.5002 293.045 83.6079C293.045 85.7156 294.753 87.4243 296.861 87.4243Z" fill="black"/>
<path d="M302.586 92.124C304.693 92.124 306.402 90.4153 306.402 88.3076C306.402 86.1999 304.693 84.4913 302.586 84.4913C300.478 84.4913 298.769 86.1999 298.769 88.3076C298.769 90.4153 300.478 92.124 302.586 92.124Z" fill="black"/>
<path d="M309.83 93.6082C311.937 93.6082 313.646 91.8995 313.646 89.7918C313.646 87.6841 311.937 85.9755 309.83 85.9755C307.722 85.9755 306.013 87.6841 306.013 89.7918C306.013 91.8995 307.722 93.6082 309.83 93.6082Z" fill="black"/>
<path d="M317.109 92.5127C319.217 92.5127 320.925 90.8041 320.925 88.6964C320.925 86.5887 319.217 84.88 317.109 84.88C315.001 84.88 313.293 86.5887 313.293 88.6964C313.293 90.8041 315.001 92.5127 317.109 92.5127Z" fill="black"/>
<path d="M323.717 89.8978C325.825 89.8978 327.533 88.1892 327.533 86.0814C327.533 83.9737 325.825 82.2651 323.717 82.2651C321.609 82.2651 319.901 83.9737 319.901 86.0814C319.901 88.1892 321.609 89.8978 323.717 89.8978Z" fill="black"/>
<path d="M330.183 86.4348C332.291 86.4348 334 84.7262 334 82.6185C334 80.5108 332.291 78.8021 330.183 78.8021C328.076 78.8021 326.367 80.5108 326.367 82.6185C326.367 84.7262 328.076 86.4348 330.183 86.4348Z" fill="black"/>
<path d="M335.908 81.6997C338.016 81.6997 339.724 79.9911 339.724 77.8834C339.724 75.7757 338.016 74.067 335.908 74.067C333.8 74.067 332.092 75.7757 332.092 77.8834C332.092 79.9911 333.8 81.6997 335.908 81.6997Z" fill="black"/>
<path d="M340.784 76.2932C342.892 76.2932 344.601 74.5846 344.601 72.4769C344.601 70.3692 342.892 68.6605 340.784 68.6605C338.677 68.6605 336.968 70.3692 336.968 72.4769C336.968 74.5846 338.677 76.2932 340.784 76.2932Z" fill="black"/>
<path d="M345.838 71.2048C347.945 71.2048 349.654 69.4961 349.654 67.3884C349.654 65.2807 347.945 63.5721 345.838 63.5721C343.73 63.5721 342.021 65.2807 342.021 67.3884C342.021 69.4961 343.73 71.2048 345.838 71.2048Z" fill="black"/>
<path d="M318.169 148.203C317.922 148.203 317.674 148.062 317.568 147.85C317.356 147.496 317.498 147.072 317.816 146.896L335.06 136.895C335.413 136.683 335.837 136.825 336.014 137.143C336.226 137.496 336.085 137.92 335.767 138.097L318.522 148.097C318.416 148.168 318.275 148.203 318.169 148.203Z" fill="black"/>
<path d="M328.452 161.596C328.205 161.596 327.993 161.49 327.851 161.278C327.639 160.96 327.745 160.5 328.063 160.288L344.742 149.829C345.06 149.617 345.52 149.723 345.732 150.041C345.944 150.359 345.838 150.818 345.52 151.03L328.841 161.49C328.699 161.56 328.593 161.596 328.452 161.596Z" fill="black"/>
<path d="M335.767 176.508C335.519 176.508 335.307 176.402 335.166 176.19C334.954 175.872 335.06 175.412 335.378 175.2C342.021 171.031 351.244 163.787 352.163 162.868C352.445 162.585 352.869 162.585 353.152 162.868C353.435 163.151 353.435 163.575 353.152 163.857C351.986 165.023 342.657 172.267 336.12 176.402C336.014 176.472 335.908 176.508 335.767 176.508Z" fill="black"/>
<path d="M296.755 155.094C296.472 155.094 296.225 154.953 296.119 154.705C295.942 154.352 296.119 153.928 296.472 153.751L308.204 148.239C308.558 148.062 308.982 148.239 309.158 148.592C309.335 148.945 309.158 149.369 308.805 149.546L297.073 155.059C296.967 155.059 296.861 155.094 296.755 155.094Z" fill="black"/>
<path d="M284.635 167.391C284.317 167.391 284.034 167.179 283.963 166.861C283.857 166.472 284.104 166.083 284.458 166.013C284.529 165.977 293.257 163.681 307.533 157.214C307.886 157.037 308.31 157.214 308.451 157.567C308.628 157.921 308.451 158.345 308.098 158.486C293.716 165.023 284.882 167.32 284.811 167.356C284.741 167.391 284.705 167.391 284.635 167.391Z" fill="black"/>
<path d="M286.048 173.045C285.73 173.045 285.412 172.797 285.341 172.479C285.271 172.091 285.518 171.737 285.907 171.631C297.427 169.264 310.819 163.115 310.96 163.045C311.314 162.868 311.738 163.045 311.915 163.398C312.091 163.751 311.915 164.175 311.561 164.352C311.42 164.423 297.886 170.642 286.225 173.009C286.154 173.045 286.084 173.045 286.048 173.045Z" fill="black"/>
<path d="M291.243 177.179C290.889 177.179 290.607 176.932 290.536 176.578C290.465 176.19 290.748 175.836 291.137 175.766C291.207 175.766 299.865 174.317 314.247 168.734C314.6 168.592 315.024 168.769 315.166 169.122C315.307 169.476 315.13 169.9 314.777 170.041C300.253 175.695 291.455 177.144 291.384 177.144C291.313 177.179 291.278 177.179 291.243 177.179Z" fill="black"/>
<path d="M338.169 32.0164C336.403 32.0164 334.813 31.8751 333.505 31.6984C329.159 31.0623 325.272 29.5782 322.904 27.6347C322.48 27.2813 322.056 26.9633 321.597 26.6099C317.568 23.5003 312.515 19.6133 311.596 7.81087C311.561 7.42217 311.844 7.06881 312.232 7.03347C312.621 6.99813 312.975 7.28082 313.01 7.66952C313.893 18.8359 318.452 22.3695 322.48 25.4792C322.939 25.8325 323.363 26.1859 323.823 26.5393C328.169 30.1436 338.382 32.1578 347.322 29.1895C347.71 29.0835 348.099 29.2602 348.205 29.6489C348.311 30.0023 348.134 30.4263 347.746 30.5323C344.318 31.6277 340.996 32.0164 338.169 32.0164Z" fill="black"/>
<path d="M333.046 62.3706C337.749 62.3706 341.562 58.5578 341.562 53.8545C341.562 49.1511 337.749 45.3383 333.046 45.3383C328.342 45.3383 324.53 49.1511 324.53 53.8545C324.53 58.5578 328.342 62.3706 333.046 62.3706Z" fill="white"/>
<path d="M333.046 46.0451C337.357 46.0451 340.855 49.5434 340.855 53.8544C340.855 58.1655 337.357 61.6638 333.046 61.6638C328.735 61.6638 325.236 58.1655 325.236 53.8544C325.236 49.5434 328.735 46.0451 333.046 46.0451ZM333.046 44.6316C327.957 44.6316 323.823 48.766 323.823 53.8544C323.823 58.9429 327.957 63.0773 333.046 63.0773C338.134 63.0773 342.269 58.9429 342.269 53.8544C342.269 48.766 338.17 44.6316 333.046 44.6316Z" fill="black"/>
<path d="M314.423 67.6004C314.247 67.6004 314.07 67.6004 313.893 67.6004C307.321 67.247 301.172 60.2857 298.663 50.3208C295.448 37.5996 297.78 26.1152 304.14 23.571C306.155 22.7583 308.275 22.3696 310.466 22.3696C319.123 22.3696 326.367 28.5888 326.438 28.6595C330.395 32.2285 332.198 35.8328 332.233 40.3206C332.304 45.303 330.183 51.4162 325.554 59.5083C322.586 64.8088 318.734 67.6004 314.423 67.6004Z" fill="white"/>
<path d="M310.501 23.0763C318.77 23.0763 325.766 28.9775 326.014 29.1895C332.551 35.126 334.636 42.1934 324.989 59.1549C322.091 64.2081 318.452 66.8937 314.459 66.8937C314.317 66.8937 314.141 66.8937 313.999 66.8937C307.709 66.5403 301.879 59.8263 299.405 50.1441C297.85 43.9602 297.568 37.8823 298.628 33.0059C299.617 28.4474 301.702 25.3378 304.458 24.2424C306.331 23.465 308.381 23.0763 310.501 23.0763ZM310.501 21.6628C308.381 21.6628 306.155 22.0162 303.893 22.8996C297.285 25.5145 294.635 37.1402 297.992 50.4621C300.677 61.0984 307.179 67.9184 313.858 68.2718C314.035 68.2718 314.211 68.2718 314.423 68.2718C318.628 68.2718 322.869 65.6922 326.19 59.8263C335.696 43.1121 334.494 34.9494 326.932 28.0941C326.932 28.1294 319.547 21.6628 310.501 21.6628Z" fill="black"/>
<path d="M326.933 28.1294C333.894 34.4194 335.484 41.8047 328.311 55.9393C318.134 44.667 321.597 29.1189 321.597 29.1189C321.597 29.1189 308.84 39.8259 297.002 33.748C297.957 28.3061 300.359 24.3131 303.893 22.8996C315.625 18.2352 326.933 28.1294 326.933 28.1294Z" fill="black"/>
<path d="M306.331 49.8614C306.19 49.8614 306.084 49.826 305.942 49.7554C305.236 49.296 304.67 48.6599 304.352 47.8825C304.14 47.3525 304.034 46.6104 304.07 45.5857C304.07 45.1969 304.423 44.8789 304.812 44.9142C305.2 44.9142 305.518 45.2676 305.483 45.6563C305.448 46.4337 305.518 46.9991 305.624 47.3525C305.836 47.8472 306.225 48.2712 306.684 48.5893C307.002 48.8013 307.108 49.2253 306.896 49.5787C306.79 49.7554 306.578 49.8614 306.331 49.8614Z" fill="black"/>
<path d="M312.268 43.7482H312.232C311.844 43.7129 311.561 43.3948 311.596 43.0061L311.667 42.052C311.702 41.6633 312.02 41.3806 312.409 41.416C312.798 41.4513 313.081 41.7693 313.045 42.158L312.975 43.1121C312.939 43.4655 312.621 43.7482 312.268 43.7482Z" fill="black"/>
<path d="M300.465 41.946H300.43C300.041 41.9107 299.759 41.5926 299.794 41.2039L299.865 40.2499C299.9 39.8612 300.218 39.5785 300.607 39.6138C300.996 39.6491 301.278 39.9672 301.243 40.3559L301.172 41.31C301.137 41.6633 300.819 41.946 300.465 41.946Z" fill="black"/>
<path d="M309.865 57.4941C308.628 57.4941 307.179 56.7521 306.437 54.5259C306.367 54.3492 306.402 54.1372 306.473 53.9958C306.543 53.8191 306.72 53.7131 306.897 53.6424L312.409 51.9109C312.621 51.8403 312.833 51.8756 313.01 52.017C313.186 52.1583 313.293 52.335 313.328 52.547C313.575 55.4799 311.985 57.1408 310.43 57.4588C310.254 57.4588 310.042 57.4941 309.865 57.4941ZM308.063 54.7732C308.557 55.7273 309.335 56.222 310.148 56.0807C310.96 55.904 311.773 55.0559 311.914 53.5718L308.063 54.7732Z" fill="black"/>
<path d="M334.495 55.6919C334.388 55.6919 334.318 55.6566 334.212 55.6212L329.229 53.501C328.876 53.3597 328.699 52.9356 328.841 52.5823C328.982 52.2289 329.406 52.0522 329.759 52.1936L334.742 54.3138C335.095 54.4551 335.272 54.8792 335.131 55.2325C335.025 55.5152 334.777 55.6919 334.495 55.6919Z" fill="black"/>
<path d="M331.102 29.6489C338.967 29.6489 345.343 23.2731 345.343 15.4082C345.343 7.54333 338.967 1.16757 331.102 1.16757C323.237 1.16757 316.861 7.54333 316.861 15.4082C316.861 23.2731 323.237 29.6489 331.102 29.6489Z" fill="black"/>
<path d="M304.616 39.5461C304.956 34.2489 301.822 29.7357 297.615 29.4655C293.408 29.1953 289.723 33.2705 289.382 38.5677C289.042 43.8649 292.176 48.3781 296.383 48.6483C300.59 48.9184 304.275 44.8433 304.616 39.5461Z" stroke="black" stroke-width="1.41339" stroke-miterlimit="3.9998" stroke-linecap="round" stroke-linejoin="round"/>
<path d="M322.218 41.0442C322.558 35.747 319.424 31.2338 315.217 30.9636C311.011 30.6935 307.325 34.7686 306.985 40.0658C306.645 45.363 309.779 49.8762 313.985 50.1463C318.192 50.4165 321.878 46.3413 322.218 41.0442Z" stroke="black" stroke-width="1.41339" stroke-miterlimit="3.9998" stroke-linecap="round" stroke-linejoin="round"/>
</g>
<defs>
<clipPath id="clip0_1_203">
<rect width="566" height="281.156" fill="white" transform="translate(-76 0.921814)"/>
</clipPath>
</defs>
</svg>
